<svg xmlns="http://www.w3.org/2000/svg" viewBox="0 0 160 160" role="img" aria-labelledby="title">
  <title id="title">李女士头像</title>
  <defs>
    <linearGradient id="bg" x1="0" y1="0" x2="1" y2="1">
      <stop offset="0" stop-color="#f7efe2"/>
      <stop offset="1" stop-color="#d8ad61"/>
    </linearGradient>
  </defs>
  <rect width="160" height="160" rx="80" fill="url(#bg)"/>
  <path d="M30 150c8-30 27-46 50-46s42 16 50 46" fill="#16223a"/>
  <path d="M58 107h44l-7 24H65z" fill="#efc29a"/>
  <circle cx="80" cy="73" r="39" fill="#f4c8a2"/>
  <path d="M39 83c-2-36 15-57 42-57 26 0 43 20 41 57-17-4-33-17-42-32-8 15-21 26-41 32z" fill="#111"/>
  <path d="M55 50c-8 10-11 27-7 47" fill="none" stroke="#111" stroke-width="14" stroke-linecap="round"/>
  <path d="M105 50c8 10 11 27 7 47" fill="none" stroke="#111" stroke-width="14" stroke-linecap="round"/>
  <path d="M63 84c8 8 26 8 34 0" fill="none" stroke="#a56352" stroke-width="4" stroke-linecap="round"/>
  <circle cx="66" cy="69" r="4" fill="#2a2020"/>
  <circle cx="94" cy="69" r="4" fill="#2a2020"/>
</svg>
