<svg xmlns="http://www.w3.org/2000/svg" viewBox="0 0 160 160" role="img" aria-labelledby="title">
  <title id="title">张先生头像</title>
  <defs>
    <linearGradient id="bg" x1="0" y1="0" x2="1" y2="1">
      <stop offset="0" stop-color="#f4ead8"/>
      <stop offset="1" stop-color="#d9bd7f"/>
    </linearGradient>
  </defs>
  <rect width="160" height="160" rx="80" fill="url(#bg)"/>
  <path d="M31 148c7-29 25-45 49-45s42 16 49 45" fill="#172b4d"/>
  <path d="M58 106h44l-5 24H63z" fill="#e7b98f"/>
  <circle cx="80" cy="72" r="40" fill="#f0c39b"/>
  <path d="M40 75c2-31 18-48 44-48 24 0 39 15 40 44-18-2-38-10-50-24-7 15-18 24-34 28z" fill="#1e1b1a"/>
  <path d="M60 82c8 7 32 7 40 0" fill="none" stroke="#9b5f4c" stroke-width="4" stroke-linecap="round"/>
  <circle cx="66" cy="68" r="4" fill="#2a2020"/>
  <circle cx="94" cy="68" r="4" fill="#2a2020"/>
</svg>
